<svg version="1.1" xmlns="http://www.w3.org/2000/svg" xmlns:xlink="http://www.w3.org/1999/xlink" x="0px" y="0px" width="100%" height="100%" xml:space="preserve">
<path fill="#FFF" d="M128.065,0c17.747,0,34.351,3.334,49.844,10.001c15.492,6.7,29.056,15.819,40.692,27.422 c11.635,11.57,20.787,25.134,27.389,40.659c6.635,15.558,9.936,32.194,9.936,49.941c0,17.716-3.301,34.368-9.936,49.86 c-6.602,15.558-15.754,29.154-27.389,40.725c-11.637,11.57-25.2,20.722-40.692,27.389C162.416,252.666,145.812,256,128.065,256 c-17.715,0-34.351-3.334-49.909-10.002c-15.525-6.667-29.089-15.818-40.692-27.389c-11.57-11.57-20.722-25.167-27.39-40.725 c-6.667-15.492-10.001-32.145-10.001-49.86c0-17.748,3.333-34.384,10.001-49.941c6.668-15.525,15.819-29.089,27.39-40.659 c11.603-11.603,25.167-20.722,40.692-27.422C93.714,3.334,110.351,0,128.065,0z M128.065,217.563c12.519,0,24.153-2.354,34.939-7.06 c10.786-4.707,20.231-11.113,28.37-19.219c8.105-8.105,14.512-17.584,19.219-28.37c4.706-10.77,7.06-22.405,7.06-34.891 c0-12.518-2.354-24.153-7.06-34.939c-4.707-10.786-11.113-20.231-19.219-28.37c-8.139-8.106-17.617-14.512-28.436-19.219 c-10.852-4.707-22.486-7.06-34.874-7.06c-12.485,0-24.154,2.353-35.005,7.06S72.764,56.609,64.723,64.715 c-8.073,8.138-14.479,17.584-19.153,28.37c-4.707,10.786-7.06,22.421-7.06,34.939c0,12.485,2.354,24.121,7.06,34.891 c4.674,10.786,11.08,20.265,19.153,28.37c8.041,8.105,17.486,14.512,28.337,19.219C103.912,215.21,115.58,217.563,128.065,217.563z M172.287,128.024c3.53,0,6.537,1.242,9.054,3.759s3.759,5.523,3.759,9.054v12.812c0,3.531-1.242,6.537-3.759,9.07 c-2.517,2.484-5.523,3.727-9.054,3.727h-57.655c-3.53,0-6.57-1.242-9.054-3.727c-2.517-2.533-3.792-5.539-3.792-9.07v-74.52 c0-3.53,1.275-6.537,3.792-9.021c2.484-2.549,5.523-3.792,9.054-3.792h12.812c3.726,0,6.766,1.242,9.119,3.792 c2.353,2.484,3.53,5.491,3.53,9.021v48.896H172.287L172.287,128.024z" transform="scale(0.0703125,0.0703125)"></path></svg>