<?xml version="1.0" encoding="utf-8"?>
<!-- Generator: Adobe Illustrator 15.0.0, SVG Export Plug-In . SVG Version: 6.00 Build 0)  -->
<!DOCTYPE svg PUBLIC "-//W3C//DTD SVG 1.1//EN" "http://www.w3.org/Graphics/SVG/1.1/DTD/svg11.dtd">
<svg version="1.1" xmlns="http://www.w3.org/2000/svg" xmlns:xlink="http://www.w3.org/1999/xlink" x="0px" y="0px"
   width="256px" height="256px" viewBox="0 0 256 256" enable-background="new 0 0 256 256" xml:space="preserve">
<path fill="#FFF" d="M194.605,162.77c1.046,0,3.791,1.176,8.235,3.594c4.444,2.419,9.216,5.099,14.313,8.007
  c5.162,2.941,10.13,5.915,14.901,8.888c4.837,3.008,8.104,4.936,9.803,5.785c1.699,1.045,4.117,2.418,7.32,4.085
  c3.203,1.666,5.359,3.562,6.47,5.686c0.196,0.621,0.262,1.862,0.262,3.692c0,1.699-0.131,3.66-0.457,5.816
  c-0.327,2.224-0.72,4.511-1.308,6.896c-0.522,2.419-1.177,4.706-1.895,6.896c-0.72,2.189-1.438,4.084-2.093,5.686
  c-1.895,4.183-5.097,7.974-9.542,11.438c-4.378,3.497-9.345,6.437-14.77,8.823c-5.489,2.418-11.045,4.313-16.796,5.784
  c-5.687,1.438-10.654,2.156-14.771,2.156c-8.562,0-16.731-1.372-24.574-4.085c-7.907-2.744-15.636-5.62-23.348-8.725
  c-13.137-4.804-25.555-11.111-37.253-18.92c-11.699-7.778-22.548-16.535-32.613-26.274c-10-9.704-19.345-20.195-28.005-31.469
  c-8.659-11.274-16.338-22.776-23.071-34.54c-2.679-4.347-5.457-9.444-8.397-15.294c-2.941-5.816-5.686-11.764-8.17-17.908
  C6.299,92.643,4.24,86.564,2.573,80.584C0.94,74.604,0.09,68.983,0.09,63.755c0-5.849,0.785-11.96,2.353-18.332
  c1.536-6.34,3.824-12.451,6.863-18.268c3.072-5.817,6.731-11.078,10.98-15.783C24.533,6.699,29.5,3.006,35.186,0.327
  c1.275,0.228,2.68,0.228,4.248,0C40.97,0.098,42.375,0,43.683,0c1.046,0,2.679,0.065,4.803,0.164
  c2.125,0.131,4.281,0.229,6.405,0.326c2.124,0.098,4.183,0.36,6.176,0.719c1.961,0.392,3.431,0.784,4.379,1.209
  c0.85,0.621,1.667,1.601,2.418,2.875c0.751,1.275,1.372,2.712,1.928,4.249c0.522,1.536,1.013,3.17,1.536,4.803
  c0.458,1.667,0.915,3.007,1.34,4.085c0.621,1.928,1.896,5.424,3.758,10.489c1.896,5.098,3.791,10.294,5.686,15.62
  c1.928,5.359,3.66,10.326,5.229,14.901c1.536,4.575,2.288,7.418,2.288,8.496c0,3.955-1.307,7.581-3.921,10.882
  c-2.614,3.3-5.49,6.372-8.627,9.215s-6.078,5.523-8.758,8.006c-2.647,2.516-3.986,4.967-3.986,7.287
  c0,2.157,0.882,4.771,2.646,7.843c1.765,3.104,3.17,5.555,4.249,7.385c8.986,15.49,19.051,28.756,30.194,39.801
  c11.143,11.045,24.639,21.077,40.455,30.032c1.929,1.078,4.347,2.549,7.287,4.41c2.941,1.863,5.621,2.811,8.104,2.811
  c2.418,0,5.245-1.698,8.382-5.13c3.138-3.398,6.339-7.189,9.607-11.307c3.269-4.085,6.601-7.843,9.934-11.274
  C188.594,164.469,191.73,162.77,194.605,162.77z"/>
</svg>